<?xml version="1.0" standalone="no"?>
<!DOCTYPE svg PUBLIC "-//W3C//DTD SVG 20010904//EN"
 "http://www.w3.org/TR/2001/REC-SVG-20010904/DTD/svg10.dtd">
<svg version="1.0" xmlns="http://www.w3.org/2000/svg"
 width="281.000000pt" height="281.000000pt" viewBox="0 0 281.000000 281.000000"
 preserveAspectRatio="xMidYMid meet">
<metadata>
Created by potrace 1.14, written by Peter Selinger 2001-2017
</metadata>
<g transform="translate(0.000000,281.000000) scale(0.100000,-0.100000)"
fill="#000000" stroke="none">
<path d="M519 2763 c-53 -59 -90 -114 -124 -185 -44 -92 -49 -132 -18 -136 18
-3 25 6 44 59 25 68 83 164 136 222 27 31 32 41 22 53 -17 21 -32 17 -60 -13z"/>
<path d="M925 2730 c-115 -23 -254 -130 -309 -238 -61 -120 -70 -291 -26 -469
69 -273 292 -532 639 -740 117 -71 162 -87 208 -74 84 24 343 202 467 321 122
117 195 213 251 333 68 143 79 198 80 372 0 134 -3 156 -23 207 -126 311 -517
397 -754 166 -27 -27 -53 -48 -57 -48 -4 0 -25 18 -46 41 -110 112 -271 160
-430 129z"/>
<path d="M327 2297 c-8 -21 8 -39 29 -35 27 5 25 42 -2 46 -12 2 -24 -3 -27
-11z"/>
<path d="M115 1782 c-76 -25 -75 -20 -75 -467 0 -334 2 -401 15 -433 10 -23
83 -104 190 -212 l175 -176 0 -72 0 -72 290 0 290 0 0 134 c0 74 -5 147 -11
163 -13 36 -565 591 -604 608 -65 29 -135 -17 -135 -88 0 -38 7 -47 116 -158
106 -106 127 -139 91 -139 -14 0 -205 190 -231 230 -20 30 -20 96 -1 130 11
20 14 73 15 243 0 242 -6 274 -59 301 -32 17 -35 17 -66 8z"/>
<path d="M2634 1780 c-12 -4 -31 -21 -43 -36 -20 -26 -21 -37 -21 -259 0 -187
3 -238 15 -261 19 -37 19 -77 1 -112 -8 -15 -66 -78 -130 -141 -94 -94 -116
-112 -122 -97 -5 14 18 43 98 124 111 112 128 136 128 174 0 56 -74 107 -127
87 -32 -11 -587 -560 -609 -601 -10 -20 -14 -65 -14 -168 l0 -140 290 0 290 0
0 77 0 77 179 181 c102 102 182 191 186 205 3 14 4 211 3 439 l-3 414 -25 18
c-32 23 -69 31 -96 19z"/>
<path d="M2096 1434 c-8 -21 1 -34 24 -34 19 0 30 17 23 38 -7 17 -40 15 -47
-4z"/>
<path d="M1900 1284 c-39 -30 -109 -80 -155 -111 -81 -53 -102 -81 -74 -98 24
-15 329 202 329 235 0 36 -30 29 -100 -26z"/>
<path d="M340 300 c-22 -14 -25 -253 -4 -275 13 -13 67 -15 374 -15 313 0 361
2 374 16 23 23 23 245 0 268 -13 14 -61 16 -372 16 -207 0 -363 -4 -372 -10z"/>
<path d="M1728 299 c-16 -9 -18 -27 -18 -139 0 -118 2 -130 19 -140 21 -11
688 -14 729 -4 21 6 22 10 22 140 0 122 -2 134 -19 144 -26 14 -709 13 -733
-1z"/>
</g>
</svg>
